<svg width="115" height="42" viewBox="0 0 115 42" fill="none" xmlns="http://www.w3.org/2000/svg">
<path d="M110.295 15.0734H109.882V12.1171H108.896V11.7437H111.281V12.1171H110.295V15.0734Z" fill="#283163"/>
<path d="M113.188 15.0734L112.171 12.1482H112.139C112.139 12.2416 112.171 12.366 112.171 12.5527C112.171 12.7083 112.171 12.895 112.171 13.0506V15.0734H111.789V11.7437H112.393L113.347 14.4821H113.379L114.364 11.7437H115V15.0734H114.587V13.0195C114.587 12.8639 114.587 12.7083 114.587 12.5527C114.587 12.3971 114.587 12.2727 114.618 12.1793H114.587L113.538 15.1045H113.188V15.0734Z" fill="#283163"/>
<path d="M54.3989 14.301H56.3833L59.3052 22.6526L62.2271 14.301H64.2114L60.1021 25.676H58.5083L54.3989 14.301ZM53.3286 14.301H55.3052L55.6646 22.4417V25.676H53.3286V14.301ZM63.3052 14.301H65.2896V25.676H62.9458V22.4417L63.3052 14.301ZM66.8442 21.5354V21.3713C66.8442 20.7515 66.9328 20.1812 67.1099 19.6604C67.2869 19.1344 67.5448 18.6786 67.8833 18.2932C68.2218 17.9078 68.6385 17.6083 69.1333 17.3948C69.6281 17.176 70.1958 17.0667 70.8364 17.0667C71.4771 17.0667 72.0474 17.176 72.5474 17.3948C73.0474 17.6083 73.4666 17.9078 73.8052 18.2932C74.1489 18.6786 74.4093 19.1344 74.5864 19.6604C74.7635 20.1812 74.8521 20.7515 74.8521 21.3713V21.5354C74.8521 22.15 74.7635 22.7203 74.5864 23.2463C74.4093 23.7672 74.1489 24.2229 73.8052 24.6135C73.4666 24.9989 73.05 25.2984 72.5552 25.512C72.0604 25.7255 71.4927 25.8323 70.8521 25.8323C70.2114 25.8323 69.6411 25.7255 69.1411 25.512C68.6463 25.2984 68.2271 24.9989 67.8833 24.6135C67.5448 24.2229 67.2869 23.7672 67.1099 23.2463C66.9328 22.7203 66.8442 22.15 66.8442 21.5354ZM69.0942 21.3713V21.5354C69.0942 21.8896 69.1255 22.2203 69.188 22.5276C69.2505 22.8349 69.3494 23.1057 69.4849 23.3401C69.6255 23.5693 69.8078 23.7489 70.0317 23.8792C70.2557 24.0094 70.5291 24.0745 70.8521 24.0745C71.1646 24.0745 71.4328 24.0094 71.6567 23.8792C71.8807 23.7489 72.0604 23.5693 72.1958 23.3401C72.3312 23.1057 72.4302 22.8349 72.4927 22.5276C72.5604 22.2203 72.5942 21.8896 72.5942 21.5354V21.3713C72.5942 21.0276 72.5604 20.7047 72.4927 20.4026C72.4302 20.0953 72.3286 19.8245 72.188 19.5901C72.0526 19.3505 71.8729 19.163 71.6489 19.0276C71.425 18.8922 71.1541 18.8245 70.8364 18.8245C70.5187 18.8245 70.2479 18.8922 70.0239 19.0276C69.8052 19.163 69.6255 19.3505 69.4849 19.5901C69.3494 19.8245 69.2505 20.0953 69.188 20.4026C69.1255 20.7047 69.0942 21.0276 69.0942 21.3713ZM80.8052 23.3401C80.8052 23.1786 80.7583 23.0328 80.6646 22.9026C80.5708 22.7724 80.3963 22.6526 80.1411 22.5432C79.8911 22.4286 79.5291 22.3245 79.0552 22.2307C78.6281 22.137 78.2297 22.0198 77.8599 21.8792C77.4953 21.7333 77.1776 21.5588 76.9067 21.3557C76.6411 21.1526 76.4328 20.913 76.2817 20.637C76.1307 20.3557 76.0552 20.0354 76.0552 19.676C76.0552 19.3219 76.1307 18.9885 76.2817 18.676C76.438 18.3635 76.6593 18.0875 76.9458 17.8479C77.2375 17.6031 77.5916 17.413 78.0083 17.2776C78.4302 17.137 78.9041 17.0667 79.4302 17.0667C80.1646 17.0667 80.7948 17.1838 81.3208 17.4182C81.8521 17.6526 82.2583 17.9755 82.5396 18.387C82.826 18.7932 82.9692 19.2568 82.9692 19.7776H80.7192C80.7192 19.5588 80.6724 19.3635 80.5786 19.1917C80.4901 19.0146 80.3494 18.8765 80.1567 18.7776C79.9692 18.6734 79.7244 18.6213 79.4224 18.6213C79.1724 18.6213 78.9562 18.6656 78.7739 18.7542C78.5916 18.8375 78.451 18.9521 78.3521 19.0979C78.2583 19.2385 78.2114 19.3948 78.2114 19.5667C78.2114 19.6969 78.2375 19.814 78.2896 19.9182C78.3468 20.0172 78.438 20.1083 78.563 20.1917C78.688 20.275 78.8494 20.3531 79.0474 20.426C79.2505 20.4937 79.5005 20.5562 79.7974 20.6135C80.4067 20.7385 80.951 20.9026 81.4302 21.1057C81.9093 21.3036 82.2896 21.5745 82.5708 21.9182C82.8521 22.2568 82.9927 22.7021 82.9927 23.2542C82.9927 23.6292 82.9093 23.9729 82.7427 24.2854C82.576 24.5979 82.3364 24.8713 82.0239 25.1057C81.7114 25.3349 81.3364 25.5146 80.8989 25.6448C80.4666 25.7698 79.9797 25.8323 79.438 25.8323C78.6515 25.8323 77.9849 25.6917 77.438 25.4104C76.8963 25.1292 76.4849 24.7724 76.2036 24.3401C75.9276 23.9026 75.7896 23.4547 75.7896 22.9963H77.9224C77.9328 23.3036 78.0109 23.551 78.1567 23.7385C78.3078 23.926 78.4979 24.0614 78.7271 24.1448C78.9614 24.2281 79.214 24.2698 79.4849 24.2698C79.7765 24.2698 80.0187 24.2307 80.2114 24.1526C80.4041 24.0693 80.55 23.9599 80.6489 23.8245C80.7531 23.6838 80.8052 23.5224 80.8052 23.3401ZM85.7349 13.676V25.676H84.8052V13.676H85.7349ZM91.0396 17.2229L87.0864 21.1448L85.4067 22.7698L85.2661 21.8557L86.6177 20.3948L89.8599 17.2229H91.0396ZM90.2271 25.676L86.6958 21.2854L87.2114 20.4807L91.3521 25.676H90.2271ZM92.1333 21.5823V21.3245C92.1333 20.7099 92.2218 20.1422 92.3989 19.6213C92.576 19.1005 92.8286 18.65 93.1567 18.2698C93.4901 17.8896 93.8885 17.5953 94.3521 17.387C94.8156 17.1734 95.3312 17.0667 95.8989 17.0667C96.4718 17.0667 96.9901 17.1734 97.4536 17.387C97.9172 17.5953 98.3156 17.8896 98.6489 18.2698C98.9823 18.65 99.2375 19.1005 99.4146 19.6213C99.5916 20.1422 99.6802 20.7099 99.6802 21.3245V21.5823C99.6802 22.1969 99.5916 22.7646 99.4146 23.2854C99.2375 23.801 98.9823 24.2489 98.6489 24.6292C98.3208 25.0094 97.925 25.3062 97.4614 25.5198C96.9979 25.7281 96.4823 25.8323 95.9146 25.8323C95.3416 25.8323 94.8234 25.7281 94.3599 25.5198C93.8963 25.3062 93.4979 25.0094 93.1646 24.6292C92.8312 24.2489 92.576 23.801 92.3989 23.2854C92.2218 22.7646 92.1333 22.1969 92.1333 21.5823ZM93.063 21.3245V21.5823C93.063 22.0458 93.1255 22.4859 93.2505 22.9026C93.3755 23.314 93.5578 23.6812 93.7974 24.0042C94.0369 24.3219 94.3338 24.5719 94.688 24.7542C95.0422 24.9364 95.451 25.0276 95.9146 25.0276C96.3729 25.0276 96.7765 24.9364 97.1255 24.7542C97.4797 24.5719 97.7765 24.3219 98.0161 24.0042C98.2557 23.6812 98.4354 23.314 98.5552 22.9026C98.6802 22.4859 98.7427 22.0458 98.7427 21.5823V21.3245C98.7427 20.8661 98.6802 20.4312 98.5552 20.0198C98.4354 19.6083 98.2531 19.2411 98.0083 18.9182C97.7687 18.5953 97.4718 18.3401 97.1177 18.1526C96.7635 17.9651 96.3573 17.8713 95.8989 17.8713C95.4406 17.8713 95.0343 17.9651 94.6802 18.1526C94.3312 18.3401 94.0343 18.5953 93.7896 18.9182C93.55 19.2411 93.3677 19.6083 93.2427 20.0198C93.1229 20.4312 93.063 20.8661 93.063 21.3245ZM104.813 17.2229V17.9885H100.579V17.2229H104.813ZM102.133 15.051H103.063V23.6213C103.063 24.012 103.115 24.3062 103.219 24.5042C103.323 24.7021 103.459 24.8349 103.625 24.9026C103.792 24.9703 103.972 25.0042 104.165 25.0042C104.305 25.0042 104.441 24.9963 104.571 24.9807C104.701 24.9599 104.818 24.939 104.922 24.9182L104.961 25.7073C104.847 25.7437 104.698 25.7724 104.516 25.7932C104.334 25.8193 104.152 25.8323 103.969 25.8323C103.61 25.8323 103.292 25.7672 103.016 25.637C102.74 25.5015 102.524 25.2724 102.368 24.9495C102.211 24.6213 102.133 24.176 102.133 23.6135V15.051Z" fill="#283163"/>
<rect x="0.5" y="0.5" width="40.6368" height="40.6368" rx="2.5" stroke="#283163"/>
<path d="M25.3268 26.756C25.3534 26.836 25.3801 26.9094 25.4068 26.976C25.4334 27.0427 25.4534 27.116 25.4668 27.196C25.4934 27.276 25.5068 27.3494 25.5068 27.416C25.5068 27.5094 25.4734 27.5827 25.4068 27.636C25.3401 27.7027 25.2601 27.756 25.1668 27.796C25.0868 27.836 25.0068 27.8627 24.9268 27.876C24.8468 27.8894 24.8001 27.896 24.7868 27.896C24.7068 27.896 24.5601 27.6494 24.3468 27.156C24.1334 26.676 23.9001 25.996 23.6468 25.116C23.4068 24.236 23.1601 23.1894 22.9068 21.976C22.6534 20.7627 22.4468 19.4294 22.2868 17.976C22.2601 18.2827 22.2068 18.6427 22.1268 19.056C22.0601 19.456 21.9534 19.836 21.8068 20.196C21.6601 20.556 21.4668 20.8627 21.2268 21.116C21.0001 21.356 20.7068 21.476 20.3468 21.476C20.0934 21.476 19.8068 21.3427 19.4868 21.076C19.1668 20.8094 18.8534 20.496 18.5468 20.136C18.2534 19.7627 17.9801 19.3894 17.7268 19.016C17.4868 18.6294 17.3068 18.316 17.1868 18.076C17.2401 18.6627 17.3268 19.3694 17.4468 20.196C17.5801 21.0227 17.7801 21.896 18.0468 22.816C18.0734 22.9094 18.1001 22.9827 18.1268 23.036C18.1668 23.076 18.2001 23.1227 18.2268 23.176C18.2668 23.2294 18.2934 23.2894 18.3068 23.356C18.3334 23.4094 18.3468 23.496 18.3468 23.616C18.3468 23.7894 18.2801 23.916 18.1468 23.996C18.0134 24.076 17.8868 24.116 17.7668 24.116C17.7001 24.116 17.6134 24.016 17.5068 23.816C17.4001 23.6027 17.2868 23.3294 17.1668 22.996C17.0468 22.6627 16.9268 22.296 16.8068 21.896C16.6868 21.4827 16.5734 21.076 16.4668 20.676C16.3734 20.276 16.2934 19.9027 16.2268 19.556C16.1601 19.196 16.1268 18.9094 16.1268 18.696C16.1268 18.3494 16.1401 18.1094 16.1668 17.976C16.2068 17.8427 16.2601 17.7427 16.3268 17.676V16.456C16.3268 16.2694 16.3734 16.1294 16.4668 16.036C16.5734 15.9294 16.7068 15.876 16.8668 15.876C17.0001 15.876 17.1534 15.9894 17.3268 16.216C17.5001 16.4427 17.6868 16.7294 17.8868 17.076C18.1001 17.4227 18.3201 17.796 18.5468 18.196C18.7734 18.596 18.9934 18.9694 19.2068 19.316C19.4334 19.6627 19.6468 19.9494 19.8468 20.176C20.0601 20.4027 20.2601 20.516 20.4468 20.516C20.6201 20.516 20.7868 20.356 20.9468 20.036C21.1068 19.7027 21.2534 19.2694 21.3868 18.736C21.5334 18.2027 21.6601 17.596 21.7668 16.916C21.8734 16.236 21.9601 15.5427 22.0268 14.836C22.0268 14.756 22.0201 14.6694 22.0068 14.576C21.9934 14.4694 21.9868 14.356 21.9868 14.236C21.9868 14.076 22.0201 13.9027 22.0868 13.716C22.1668 13.5294 22.3134 13.436 22.5268 13.436C22.6468 13.436 22.7401 13.4694 22.8068 13.536C22.8868 13.6027 22.9401 13.6894 22.9668 13.796C22.9934 13.8894 23.0068 13.9894 23.0068 14.096C23.0201 14.1894 23.0268 14.2694 23.0268 14.336C23.0268 14.4427 23.0134 14.6227 22.9868 14.876C22.9734 15.116 22.9668 15.4894 22.9668 15.996C22.9668 16.436 23.0001 16.9494 23.0668 17.536C23.1334 18.1094 23.2201 18.7227 23.3268 19.376C23.4468 20.016 23.5801 20.6827 23.7268 21.376C23.8868 22.056 24.0534 22.7227 24.2268 23.376C24.4134 24.0294 24.5934 24.6494 24.7668 25.236C24.9534 25.8094 25.1401 26.316 25.3268 26.756Z" fill="#283163"/>
</svg>
